# xmcd CD database file generated by OrangeCD 6.2
#
# Track frame offsets:
#	150
#	14872
#	28760
#	40945
#	55035
#	68127
#	81417
#	96497
#	110285
#	123290
#	137592
#	150280
#	163367
#	176075
#	188617
#	201612
#	213022
#	225035
#	234772
#	247462
#
# Disc length: 3452 seconds
#
# Revision: 3
# Processed by: cddbd v1.5.2PL0 Copyright (c) Steve Scherf et al.
# Submitted via: OrangeCD 6.2
#
DISCID=120d7a14
DTITLE=Various Artist - Hillbilly Blues
DYEAR=1996
DGENRE=Blues
TTITLE0=Bill Carlisle - Bell Clappin' Mama
TTITLE1=Jimmie Rodgers - T.B. Blues
TTITLE2=Allen Brothers - A New Salty Dog
TTITLE3=Dick Justice - Brown Skin Blues
TTITLE4=Nations Brothers - Bankhead Blues
TTITLE5=Roy Newman and His Boys - Match Box Blues
TTITLE6=Shelton Brothers - I'm Sitting On Top Of The World
TTITLE7=Jimmie Davies - Easy Rider Blues
TTITLE8=Lone Star Cowboy - Deep Elm Blues
TTITLE9=Norman Phelps' Virgina - Atlanta Blues
TTITLE10=Hartman's Heartbreakers - Give It To Me, Daddy
TTITLE11=Ashley and Foster - Times Ain't Like They Used To Be
TTITLE12=Stripling Brothers - Salty Dog
TTITLE13=Jess Hillard - Doggone Them Blues
TTITLE14=Buddy Jones - Sailing Blues
TTITLE15=Riverside Ramblers - Dissatisfied
TTITLE16=Swift Jewell Cowboys - Fan It
TTITLE17=Three Tobacco Tags - V-8 Blues
TTITLE18=Son of the Ozarks - Plantation Blues
TTITLE19=Smooky Wood and His Woods - Woodchip Blues
EXTD=
EXTT0=
EXTT1=
EXTT2=
EXTT3=
EXTT4=
EXTT5=
EXTT6=
EXTT7=
EXTT8=
EXTT9=
EXTT10=
EXTT11=
EXTT12=
EXTT13=
EXTT14=
EXTT15=
EXTT16=
EXTT17=
EXTT18=
EXTT19=
PLAYORDER=
